<svg width="auto" height="auto" viewBox="0 0 149 72" fill="none" xmlns="http://www.w3.org/2000/svg">
<path d="M25.2314 30.7435C31.4901 31.3884 39.3828 34.3153 39.2426 41.8603C39.1093 49.0547 33.5816 56.0406 27.9821 60.0032C27.3089 60.4799 23.5378 62.6882 23.3818 62.9388C23.1399 63.3244 24.3828 64.3847 23.5659 64.3462C22.4351 64.2919 21.6707 63.0738 22.4877 62.1204C23.2012 61.2879 26.1903 59.6772 27.3176 58.8132C31.6409 55.5008 34.9473 51.3454 36.3849 46.0052C38.6132 37.7241 34.2286 35.0724 26.8443 33.7702C24.4389 33.3461 19.6651 33.8964 21.8338 30.06C22.2317 29.3554 22.9645 28.5159 23.487 27.8639C27.7752 22.4992 33.4729 17.5201 36.8145 11.442C38.1206 9.06726 39.8474 5.93009 36.2552 4.76812C32.9838 3.7113 29.6178 5.534 26.8057 7.03424C24.9509 8.0227 21.3131 10.7463 19.637 11.2422C19.0585 11.4122 18.6518 11.3194 18.8324 10.6218C18.9691 10.096 20.6574 7.99466 21.1202 7.47414C25.035 3.05582 32.5648 -1.06981 38.4291 1.72384C47.5367 6.06329 36.7303 17.9652 32.8523 22.3503C30.6907 24.7951 27.1633 27.7798 25.4084 30.3071C25.305 30.4561 25.1647 30.4806 25.2366 30.7452L25.2314 30.7435Z" fill="#ECF5F9"/>
<path d="M22.4254 41.9462C22.5464 42.1162 22.364 42.5421 22.2676 42.7419C21.9573 43.3904 20.6758 44.8888 20.1498 45.5233C16.2876 50.187 6.85739 59.4197 1.87843 51.0247C-2.56582 43.5306 1.45417 27.6555 7.90052 22.0787C11.5839 18.8924 16.6698 19.0589 18.6105 23.9732C18.8753 24.6445 20.0884 29.0873 18.3984 28.034C18.1793 27.8973 16.5769 25.1948 15.7792 24.5288C12.5429 21.821 9.56426 25.9011 8.0022 28.4809C4.93418 33.5495 2.00816 42.7471 4.04358 48.508C6.75746 56.1861 15.9317 47.6877 19.1943 44.5699C19.7431 44.0458 21.4314 41.962 21.8837 41.8481C21.9906 41.8218 22.4079 41.9217 22.4237 41.9445L22.4254 41.9462Z" fill="#ECF5F9"/>
<path d="M107.359 69.51C106.345 69.51 105.501 69.1754 104.825 68.5062C104.156 67.8307 103.822 66.9958 103.822 66.0017C103.822 65.0075 104.156 64.1758 104.825 63.5067C105.501 62.8311 106.345 62.4933 107.359 62.4933C108.162 62.4933 108.863 62.7228 109.462 63.1816C110.067 63.6341 110.456 64.2013 110.628 64.8832H109.424C109.277 64.4945 109.016 64.179 108.64 63.9368C108.264 63.6947 107.837 63.5736 107.359 63.5736C106.658 63.5736 106.081 63.8062 105.628 64.2714C105.176 64.7366 104.95 65.3134 104.95 66.0017C104.95 66.6899 105.176 67.2667 105.628 67.7319C106.081 68.1971 106.658 68.4298 107.359 68.4298C107.837 68.4298 108.264 68.3087 108.64 68.0665C109.016 67.8243 109.277 67.5089 109.424 67.1201H110.628C110.456 67.802 110.067 68.3724 109.462 68.8313C108.863 69.2837 108.162 69.51 107.359 69.51ZM111.758 69.3953V62.6081H112.876V65.4185H116.231V62.6081H117.35V69.3953H116.231V66.4796H112.876V69.3953H111.758ZM121.649 69.51C120.84 69.51 120.187 69.2582 119.69 68.7548C119.193 68.2513 118.944 67.579 118.944 66.7377V62.6081H120.062V66.7569C120.062 67.2858 120.206 67.6969 120.493 67.99C120.779 68.2832 121.165 68.4298 121.649 68.4298C122.134 68.4298 122.516 68.2832 122.796 67.99C123.083 67.6969 123.227 67.2858 123.227 66.7569V62.6081H124.345V66.7377C124.345 67.5726 124.093 68.2449 123.59 68.7548C123.086 69.2582 122.44 69.51 121.649 69.51ZM125.929 69.3953V62.6081H128.376C129 62.6081 129.498 62.7897 129.867 63.153C130.243 63.5098 130.431 63.9719 130.431 64.5391C130.431 65.017 130.297 65.4122 130.03 65.7244C129.768 66.0303 129.389 66.2375 128.892 66.3458L131.416 69.3953H130.039L127.554 66.4127H127.047V69.3953H125.929ZM127.047 65.4377H128.242C128.573 65.4377 128.835 65.3612 129.026 65.2082C129.217 65.0489 129.313 64.8259 129.313 64.5391C129.313 64.2523 129.217 64.0324 129.026 63.8795C128.835 63.7201 128.573 63.6405 128.242 63.6405H127.047V65.4377ZM135.029 69.51C134.015 69.51 133.171 69.1754 132.496 68.5062C131.826 67.8307 131.492 66.9958 131.492 66.0017C131.492 65.0075 131.826 64.1758 132.496 63.5067C133.171 62.8311 134.015 62.4933 135.029 62.4933C135.832 62.4933 136.533 62.7228 137.132 63.1816C137.737 63.6341 138.126 64.2013 138.298 64.8832H137.094C136.947 64.4945 136.686 64.179 136.31 63.9368C135.934 63.6947 135.507 63.5736 135.029 63.5736C134.328 63.5736 133.751 63.8062 133.299 64.2714C132.846 64.7366 132.62 65.3134 132.62 66.0017C132.62 66.6899 132.846 67.2667 133.299 67.7319C133.751 68.1971 134.328 68.4298 135.029 68.4298C135.507 68.4298 135.934 68.3087 136.31 68.0665C136.686 67.8243 136.947 67.5089 137.094 67.1201H138.298C138.126 67.802 137.737 68.3724 137.132 68.8313C136.533 69.2837 135.832 69.51 135.029 69.51ZM139.428 69.3953V62.6081H140.546V65.4185H143.901V62.6081H145.02V69.3953H143.901V66.4796H140.546V69.3953H139.428Z" fill="#ECF5F9"/>
<path d="M148.744 14.5146V25.3947H139.859V30.7985H147.035V40.5473H139.859V45.951H148.744V56.8311H129.582V14.5146H148.744Z" fill="#ECF5F9"/>
<path d="M127.057 14.5146V21.7873H121.933V56.8311H112.523V21.7873H107.504V14.5146H127.057Z" fill="#ECF5F9"/>
<path d="M104.91 14.5483V56.7964H94.1602L94.2909 14.5483H104.91Z" fill="#ECF5F9"/>
<path d="M76.5426 14.5061L86.0443 43.2011V14.5061H91.0907V56.8394H85.9654L76.5816 28.2233V56.8394H71.5352V14.5061H76.5426Z" fill="#ECF5F9"/>
<path d="M68.4509 19.7963C67.4715 16.6824 65.4569 14.8829 62.2904 14.2957C58.9588 13.678 56.1089 14.2326 54.0491 15.9006C51.9819 17.5738 50.8426 20.2551 50.7522 23.6552V23.6678V23.6805C50.8805 27.4068 50.8037 31.2573 50.728 34.9815C50.6449 39.0803 50.5596 43.3191 50.748 47.4201C50.9973 52.8512 53.359 56.2797 57.3966 57.0731C58.1519 57.2215 58.8925 57.2952 59.6068 57.2952C61.9759 57.2952 64.0715 56.4933 65.5464 54.9769C65.7462 54.7717 65.9156 54.5486 66.0734 54.3234L66.1891 56.7953H69.1705V35.2256H59.5405V38.3016H65.6189C65.5884 39.6454 65.6147 41.0135 65.6389 42.3404C65.6684 43.9274 65.6999 45.569 65.6337 47.1517C65.4527 51.501 64.5585 54.0582 60.521 54.2613C58.5453 54.3613 57.1073 53.975 56.1258 53.0827C54.9959 52.0545 54.411 50.2971 54.2879 47.5537C54.431 43.7716 54.3468 39.8685 54.2658 36.0938C54.1775 31.996 54.087 27.7583 54.2879 23.6826C54.4163 21.0717 55.0506 19.2943 56.2278 18.2504C57.244 17.3486 58.6695 16.976 60.5852 17.1128C63.9694 17.3528 65.4327 19.3448 65.6337 23.9888C65.6747 24.9359 65.6547 25.9156 65.6358 26.8638C65.6179 27.753 65.599 28.6727 65.6305 29.5735L65.6442 29.9797H69.1663L69.1694 29.562C69.1726 29.1705 69.1789 28.7685 69.1852 28.3591C69.2283 25.5757 69.2767 22.4219 68.4509 19.7942V19.7963Z" fill="#ECF5F9"/>
<path d="M47.9359 14.5903H45.2871V56.7542H47.9359V14.5903Z" fill="#ECF5F9"/>
</svg>
