<svg width="293" height="286" viewBox="0 0 293 286" fill="none" xmlns="http://www.w3.org/2000/svg">
<path d="M178.868 285.678L157.543 237.889C152.747 227.138 137.47 227.159 132.706 237.931L121.655 262.902C116.103 275.455 101.416 281.131 88.8633 275.579L127.734 187.708C130.759 180.872 137.543 176.45 145.021 176.439H145.052C152.519 176.439 159.293 180.831 162.338 187.656L191.432 252.845C197.025 265.378 191.401 280.085 178.858 285.678H178.868Z" fill="#ECF5F9"/>
<path d="M18.7945 218.262L57.655 183.212C66.3966 175.33 61.653 160.809 49.9389 159.608L22.7716 156.822C9.11034 155.424 -0.822377 143.212 0.586219 129.551L96.1636 139.37C103.6 140.136 109.908 145.222 112.228 152.327V152.358C114.548 159.463 112.456 167.262 106.915 172.265L53.9057 220.074C43.7141 229.271 27.9918 228.463 18.7945 218.262Z" fill="#ECF5F9"/>
<path d="M33.4601 45.191L78.8045 71.3122C89.0064 77.1951 101.342 68.1946 98.8666 56.6877L93.1286 29.9865C90.2389 16.5634 98.7837 3.34746 112.207 0.457764L132.414 94.3883C133.988 101.701 131.099 109.261 125.06 113.663L125.04 113.684C118.991 118.076 110.933 118.5 104.46 114.772L42.6057 79.132C30.7155 72.2754 26.6243 57.0812 33.4808 45.1807L33.4601 45.191Z" fill="#ECF5F9"/>
<path d="M202.586 5.65644L191.752 56.8527C189.318 68.37 201.685 77.3291 211.866 71.4151L235.481 57.702C247.35 50.8144 262.565 54.8434 269.463 66.7232L186.366 114.968C179.903 118.717 171.814 118.313 165.755 113.932L165.735 113.911C159.686 109.52 156.796 101.98 158.34 94.6776L173.12 24.8382C175.957 11.4048 189.153 2.8289 202.586 5.6668V5.65644Z" fill="#ECF5F9"/>
<path d="M292.444 154.284L240.409 159.794C228.705 161.037 224.003 175.569 232.776 183.419L253.117 201.648C263.34 210.815 264.2 226.527 255.044 236.749L183.485 172.627C177.913 167.635 175.81 159.815 178.099 152.71V152.679C180.419 145.574 186.686 140.488 194.122 139.701L265.111 132.182C278.762 130.732 291.005 140.633 292.455 154.284H292.444Z" fill="#ECF5F9"/>
<path d="M146.45 121.203C141.261 121.203 137.046 125.595 133.638 129.002C130.231 132.41 127.082 136.625 127.082 141.814C127.082 147.003 129.785 151.664 133.193 155.072C136.6 158.479 141.261 161.752 146.45 161.752C151.639 161.752 155.958 158.137 159.366 154.73C162.773 151.322 164.886 147.003 164.886 141.814C164.886 136.625 162.369 132.72 158.952 129.303C155.534 125.885 151.639 121.203 146.44 121.203H146.45Z" fill="#ECF5F9"/>
</svg>
